<?xml version="1.0" standalone="no"?>
<!DOCTYPE svg PUBLIC "-//W3C//DTD SVG 20010904//EN"
 "http://www.w3.org/TR/2001/REC-SVG-20010904/DTD/svg10.dtd">
<svg version="1.0" xmlns="http://www.w3.org/2000/svg"
 width="512.000000pt" height="512.000000pt" viewBox="0 0 512.000000 512.000000"
 preserveAspectRatio="xMidYMid meet">

<g transform="translate(0.000000,512.000000) scale(0.100000,-0.100000)"
fill="#000000" stroke="none">
<path d="M363 4285 c-183 -49 -324 -202 -353 -380 -13 -81 -13 -2609 0 -2690
29 -180 172 -332 357 -380 86 -23 4300 -23 4386 0 185 48 328 200 357 380 13
81 13 2609 0 2690 -29 180 -172 332 -357 380 -84 22 -4309 21 -4390 0z m4357
-326 c21 -12 47 -38 59 -59 l21 -38 0 -1302 0 -1302 -21 -38 c-12 -21 -38 -47
-59 -59 l-38 -21 -2122 0 -2122 0 -38 21 c-21 12 -47 38 -59 59 l-21 38 0
1302 0 1302 21 38 c12 20 38 47 58 58 l36 22 2124 0 2123 0 38 -21z"/>
<path d="M710 3638 c-64 -44 -88 -132 -55 -202 19 -39 1788 -1602 1843 -1628
47 -22 77 -22 124 0 55 25 1824 1589 1843 1628 33 70 9 158 -55 202 -42 28
-122 30 -165 3 -16 -10 -401 -345 -854 -745 -453 -399 -827 -726 -831 -726 -4
0 -378 327 -831 726 -453 400 -837 735 -854 745 -43 27 -123 25 -165 -3z"/>
</g>
</svg>
